<?xml version="1.0" encoding="utf-8"?>
<!-- Generator: Adobe Illustrator 23.0.3, SVG Export Plug-In . SVG Version: 6.00 Build 0)  -->
<svg version="1.1" xmlns="http://www.w3.org/2000/svg" xmlns:xlink="http://www.w3.org/1999/xlink" x="0px" y="0px"
	 viewBox="0 0 200 200" style="enable-background:new 0 0 200 200;" xml:space="preserve">
<style type="text/css">
	.st0{display:none;}
	.st1{fill:#DCE4F2;}
</style>
<g id="Слой_1" class="st0">
	
		<image style="display:inline;overflow:visible;" width="726" height="720" xlink:href="instagram-1581266_960_720.jpg"  transform="matrix(0.2755 0 0 0.2755 0 0)">
	</image>
</g>
<g id="Слой_2">
	<path class="st1" d="M144.6,19.5H56.9C24.8,23.8,19.5,58,19.5,58v83.4C27,183.1,60.1,181,60.1,181h81.3
		c38.5-4.3,39.6-41.7,39.6-41.7V54.8C174.6,22.7,144.6,19.5,144.6,19.5z M165.5,131.8c0,0-0.9,30.2-32,33.7H67.8
		c0,0-26.8,1.7-32.8-32V66.1c0,0,4.3-27.6,30.2-31.1h70.9c0,0,24.2,2.6,29.4,28.5V131.8z"/>
	<circle class="st1" cx="100.8" cy="104" r="25.1"/>
	<path class="st1" d="M131.9,43.6H70.4c-22.5,3-26.3,27-26.3,27v58.6c5.3,29.3,28.5,27.8,28.5,27.8h57.1c27-3,27.8-29.3,27.8-29.3
		V68.3C153,45.8,131.9,43.6,131.9,43.6z M101.3,138.8c-18.9,0-34.2-15.3-34.2-34.2c0-18.9,15.3-34.2,34.2-34.2s34.2,15.3,34.2,34.2
		C135.5,123.4,120.2,138.8,101.3,138.8z M136.6,70.3c-3.5,0-6.4-2.9-6.4-6.4c0-3.5,2.9-6.4,6.4-6.4s6.4,2.9,6.4,6.4
		C143,67.4,140.2,70.3,136.6,70.3z"/>
</g>
</svg>
